<svg xmlns="http://www.w3.org/2000/svg" xmlns:xlink="http://www.w3.org/1999/xlink" width="500" zoomAndPan="magnify" viewBox="0 0 375 374.999991" height="500" preserveAspectRatio="xMidYMid meet" version="1.0"><defs><g/></defs><g fill="#e4e2dd" fill-opacity="1"><g transform="translate(42.181954, 228.629707)"><g><path d="M 23.171875 0.15625 L 20.796875 -0.15625 L 19.609375 -0.15625 L 17.234375 0 L 11.140625 0 L 10.25 -0.15625 L 9.0625 -0.15625 L 6.828125 -0.296875 L 5.5 -0.453125 L 4.453125 -1.34375 L 4.609375 -2.53125 L 4.90625 -4.015625 L 4.90625 -6.234375 L 5.34375 -7.421875 L 5.640625 -8.765625 L 5.9375 -10.84375 L 6.234375 -12.625 L 6.390625 -13.65625 L 6.984375 -15.59375 L 7.28125 -17.671875 L 7.421875 -19.75 L 7.71875 -20.640625 L 7.875 -21.6875 L 8.171875 -22.71875 L 8.3125 -23.90625 L 8.765625 -25.09375 L 8.90625 -25.984375 L 9.203125 -28.21875 L 9.5 -30.59375 L 10.09375 -32.078125 L 9.953125 -33.5625 L 10.390625 -35.640625 L 10.84375 -36.828125 L 11.140625 -38.015625 L 11.28125 -38.90625 L 11.28125 -39.953125 L 11.734375 -41.875 L 12.03125 -43.8125 L 12.171875 -44.859375 L 12.625 -46.640625 L 12.625 -47.53125 L 12.765625 -48.125 L 13.0625 -49.609375 L 13.65625 -51.6875 L 13.8125 -53.765625 L 14.109375 -54.5 L 14.703125 -56.4375 L 14.859375 -57.625 L 15.453125 -59.703125 L 15.75 -61.78125 L 15.75 -62.96875 L 15.890625 -64.015625 L 16.1875 -65.046875 L 16.640625 -66.390625 L 16.78125 -67.71875 L 16.9375 -69.5 L 17.234375 -70.546875 L 17.375 -71.4375 L 17.828125 -72.625 L 17.96875 -73.953125 L 18.125 -74.859375 L 18.125 -75.890625 L 18.421875 -76.78125 L 18.5625 -77.671875 L 18.859375 -79.90625 L 19.453125 -81.984375 L 19.75 -86.734375 L 20.203125 -88.953125 L 20.640625 -90.890625 L 21.53125 -94.453125 L 21.984375 -96.390625 L 21.984375 -97.578125 L 22.125 -98.609375 L 22.28125 -100.84375 L 22.578125 -102.171875 L 23.015625 -102.921875 L 24.359375 -104.109375 L 26.4375 -104.265625 L 30.15625 -104.265625 L 31.046875 -104.109375 L 32.671875 -104.265625 L 35.796875 -104.265625 L 43.0625 -103.96875 L 49.015625 -104.109375 L 51.09375 -103.96875 L 55.546875 -103.96875 L 57.171875 -103.65625 L 58.65625 -103.515625 L 60.890625 -102.921875 L 62.671875 -102.46875 L 64.15625 -101.734375 L 65.5 -101.140625 L 67.125 -99.796875 L 69.0625 -97.71875 L 70.390625 -96.53125 L 70.984375 -95.640625 L 71.4375 -94.90625 L 72.03125 -93.125 L 72.921875 -91.046875 L 73.0625 -89.859375 L 73.0625 -88.8125 L 73.359375 -87.625 L 73.65625 -85.84375 L 73.515625 -83.609375 L 73.359375 -82.71875 L 73.359375 -81.6875 L 73.21875 -80.796875 L 72.921875 -79.75 L 72.921875 -78.859375 L 72.625 -76.9375 L 72.46875 -75.890625 L 71.875 -73.953125 L 72.03125 -73.0625 L 71.734375 -72.03125 L 71.578125 -71.578125 L 71.4375 -70.546875 L 71.140625 -69.65625 L 70.84375 -68.609375 L 70.390625 -67.71875 L 69.796875 -66.390625 L 68.765625 -64.75 L 67.71875 -63.265625 L 66.53125 -61.484375 L 64.609375 -59.5625 L 63.859375 -58.953125 L 63.125 -58.0625 L 62.375 -57.46875 L 61.34375 -56.875 L 59.5625 -55.84375 L 57.765625 -55.09375 L 56.4375 -54.5 L 56.4375 -53.609375 L 57.921875 -53.015625 L 59.5625 -52.125 L 60.890625 -51.53125 L 62.671875 -50.34375 L 63.5625 -49.3125 L 64.453125 -48.421875 L 65.34375 -46.9375 L 65.9375 -45.890625 L 66.6875 -44.25 L 66.984375 -42.765625 L 67.421875 -41.875 L 67.71875 -39.953125 L 68.3125 -38.015625 L 68.171875 -36.09375 L 68.46875 -34.609375 L 68.3125 -33.265625 L 68.3125 -31.34375 L 68.171875 -30.296875 L 67.875 -28.0625 L 67.421875 -25.84375 L 66.984375 -23.90625 L 66.828125 -22.875 L 66.390625 -20.796875 L 66.09375 -19.90625 L 65.796875 -18.859375 L 65.5 -17.96875 L 65.203125 -16.9375 L 62.828125 -12.171875 L 61.484375 -10.390625 L 60.59375 -8.765625 L 59.859375 -8.015625 L 58.8125 -7.125 L 58.21875 -6.390625 L 57.03125 -5.640625 L 56.140625 -5.203125 L 55.390625 -4.453125 L 54.359375 -3.859375 L 53.609375 -3.265625 L 52.875 -2.828125 L 51.828125 -2.375 L 50.640625 -1.78125 L 49.015625 -1.34375 L 47.828125 -0.890625 L 46.9375 -0.75 L 45.59375 -0.59375 L 43.65625 -0.15625 L 42.765625 -0.296875 L 40.546875 0.15625 L 38.3125 0 L 37.28125 -0.15625 L 36.234375 0 L 32.234375 0.15625 L 30.296875 0 L 29.109375 -0.15625 L 27.03125 -0.15625 L 25.84375 0 L 25.390625 0 Z M 39.953125 -64.453125 L 42.03125 -64.609375 L 43.8125 -64.90625 L 45 -65.640625 L 46.640625 -66.6875 L 48.421875 -68.171875 L 49.15625 -69.5 L 50.34375 -70.984375 L 51.09375 -73.0625 L 51.53125 -74.859375 L 51.828125 -75.75 L 51.984375 -76.9375 L 52.578125 -78.421875 L 52.421875 -80.046875 L 52.28125 -81.09375 L 52.125 -82.875 L 51.234375 -84.65625 L 50.796875 -85.390625 L 49.609375 -86.4375 L 48.71875 -86.578125 L 47.375 -86.875 L 44.703125 -87.171875 L 40.984375 -87.171875 L 39.796875 -86.875 L 39.796875 -85.84375 L 39.359375 -84.5 L 39.203125 -83.171875 L 39.0625 -82.125 L 38.609375 -80.34375 L 38.609375 -79.3125 L 38.171875 -77.375 L 38.015625 -76.34375 L 37.71875 -75.453125 L 36.6875 -68.171875 L 36.390625 -66.984375 L 36.234375 -65.5 L 36.234375 -64.609375 L 38.171875 -64.609375 Z M 30.453125 -19.015625 L 31.78125 -19.453125 L 35.5 -19.015625 L 38.3125 -19.015625 L 39.359375 -19.453125 L 40.390625 -19.453125 L 41.4375 -19.90625 L 42.765625 -20.9375 L 43.8125 -21.828125 L 44.703125 -23.171875 L 44.859375 -24.359375 L 45.59375 -25.984375 L 45.890625 -27.03125 L 46.046875 -28.21875 L 46.78125 -30.15625 L 47.078125 -32.828125 L 46.9375 -35.34375 L 47.078125 -37.28125 L 45.75 -40.84375 L 44.109375 -42.328125 L 41.28125 -43.359375 L 39.796875 -43.65625 L 38.609375 -43.953125 L 36.53125 -43.953125 L 34.90625 -44.109375 L 32.828125 -44.109375 L 32.375 -42.765625 L 32.078125 -40.09375 L 31.78125 -38.90625 L 31.484375 -38.3125 L 31.1875 -36.09375 L 30.890625 -35.046875 L 30.890625 -34.015625 L 30.59375 -33.125 L 30.453125 -31.9375 L 30.15625 -29.859375 L 29.859375 -28.8125 L 29.40625 -26.578125 L 29.40625 -25.546875 L 29.109375 -23.46875 L 28.8125 -22.28125 L 28.65625 -21.09375 L 28.0625 -19.15625 Z M 30.453125 -19.015625 "/></g></g></g><g fill="#e4e2dd" fill-opacity="1"><g transform="translate(104.25647, 228.629707)"><g><path d="M 6.53125 0.15625 L 5.34375 -0.59375 L 4.75 -1.484375 L 4.609375 -2.53125 L 4.453125 -3.421875 L 4.609375 -4.3125 L 5.203125 -5.796875 L 5.640625 -7.28125 L 5.796875 -8.3125 L 5.9375 -9.203125 L 6.53125 -11.140625 L 6.53125 -13.359375 L 7.125 -15.296875 L 7.125 -16.34375 L 7.28125 -17.234375 L 7.578125 -19.15625 L 7.875 -20.5 L 7.875 -22.28125 L 8.609375 -24.359375 L 8.90625 -25.25 L 9.359375 -26.28125 L 9.203125 -27.171875 L 9.65625 -29.109375 L 10.09375 -30.15625 L 10.09375 -31.046875 L 10.25 -31.9375 L 10.546875 -34.015625 L 10.84375 -34.90625 L 10.84375 -36.984375 L 10.984375 -37.875 L 11.140625 -38.90625 L 11.140625 -39.796875 L 11.734375 -41.875 L 11.734375 -42.921875 L 12.46875 -45 L 13.0625 -49.453125 L 13.65625 -51.53125 L 13.65625 -52.28125 L 14.546875 -56.4375 L 14.859375 -58.359375 L 15.15625 -60.15625 L 15.890625 -62.078125 L 16.046875 -63.265625 L 16.046875 -65.34375 L 16.78125 -67.28125 L 16.78125 -68.3125 L 17.078125 -70.09375 L 17.53125 -73.21875 L 17.375 -74.40625 L 17.828125 -75.59375 L 18.421875 -77.671875 L 18.71875 -78.859375 L 18.421875 -79.90625 L 18.71875 -81.09375 L 18.859375 -83.015625 L 19.15625 -84.65625 L 19.75 -85.546875 L 19.75 -86.578125 L 19.90625 -87.625 L 19.90625 -88.515625 L 20.5 -89.5625 L 20.640625 -91.9375 L 21.09375 -94.3125 L 21.6875 -96.09375 L 21.828125 -97.875 L 21.828125 -98.90625 L 22.125 -99.796875 L 22.875 -102.765625 L 23.3125 -103.65625 L 25.6875 -103.96875 L 29.25 -103.96875 L 34.75 -103.8125 L 40.546875 -103.8125 L 43.515625 -103.65625 L 43.953125 -101.875 L 43.8125 -100.84375 L 43.8125 -99.796875 L 42.921875 -96.234375 L 42.921875 -95.203125 L 42.625 -94.3125 L 42.171875 -91.1875 L 41.875 -89.5625 L 41.578125 -88.0625 L 40.390625 -82.875 L 39.953125 -80.796875 L 39.953125 -79.609375 L 39.359375 -77.53125 L 39.0625 -75.453125 L 38.46875 -74.40625 L 38.765625 -73.21875 L 38.46875 -72.03125 L 38.3125 -70.984375 L 38.015625 -69.953125 L 37.578125 -67.875 L 37.125 -65.9375 L 36.53125 -64.90625 L 36.6875 -63.71875 L 36.390625 -62.671875 L 36.390625 -61.484375 L 35.9375 -58.359375 L 35.640625 -57.328125 L 35.640625 -55.25 L 35.34375 -54.203125 L 34.90625 -51.984375 L 34.75 -50.9375 L 34.15625 -48.5625 L 34.015625 -46.34375 L 33.5625 -44.25 L 33.421875 -43.0625 L 33.265625 -42.03125 L 32.671875 -39.65625 L 32.671875 -38.609375 L 32.375 -37.421875 L 32.234375 -35.34375 L 31.640625 -33.421875 L 31.484375 -31.484375 L 31.1875 -30.15625 L 31.1875 -28.65625 L 31.046875 -27.625 L 30.890625 -26.734375 L 30.59375 -25.6875 L 30.453125 -24.0625 L 30.15625 -22.578125 L 30.15625 -21.09375 L 30.890625 -20.34375 L 32.375 -20.34375 L 33.71875 -20.203125 L 41.4375 -20.203125 L 44.703125 -20.34375 L 48.5625 -20.34375 L 49.453125 -19.90625 L 49.3125 -17.671875 L 49.015625 -16.640625 L 49.15625 -15.59375 L 48.71875 -14.40625 L 47.96875 -9.203125 L 47.53125 -8.171875 L 47.53125 -7.125 L 47.375 -6.234375 L 47.078125 -4.015625 L 46.484375 -1.640625 L 45.296875 -0.59375 L 42.46875 -0.59375 L 40.546875 -0.296875 L 37.28125 0.15625 L 34.609375 0 L 32.375 0.15625 L 30.296875 -0.15625 L 27.328125 0 L 15.15625 0 L 13.65625 0.15625 L 9.5 0.15625 L 8.46875 0 Z M 6.53125 0.15625 "/></g></g></g><g fill="#e4e2dd" fill-opacity="1"><g transform="translate(147.173735, 228.629707)"><g><path d="M 12.03125 0.296875 L 9.796875 0.15625 L 8.765625 0 L -2.078125 -0.15625 L -3.421875 -0.453125 L -3.71875 -1.640625 L -3.421875 -2.671875 L -3.265625 -3.5625 L -2.375 -5.34375 L -1.1875 -7.28125 L 0.296875 -11.734375 L 1.1875 -13.515625 L 1.9375 -15.296875 L 3.5625 -18.859375 L 4.15625 -20.796875 L 5.34375 -23.46875 L 5.640625 -24.359375 L 6.390625 -25.390625 L 7.125 -27.171875 L 7.421875 -28.0625 L 7.578125 -29.109375 L 8.015625 -30 L 8.765625 -31.9375 L 9.203125 -32.96875 L 10.25 -35.046875 L 10.546875 -36.09375 L 10.84375 -37.421875 L 11.578125 -38.609375 L 12.46875 -40.390625 L 12.765625 -41.4375 L 13.65625 -43.515625 L 13.8125 -44.40625 L 14.25 -45.453125 L 14.703125 -46.34375 L 15.453125 -48.421875 L 15.890625 -49.3125 L 17.078125 -53.46875 L 17.53125 -54.65625 L 18.5625 -56.578125 L 19.3125 -59.109375 L 20.203125 -60.75 L 20.640625 -61.640625 L 21.09375 -63.5625 L 21.828125 -64.609375 L 22.28125 -66.53125 L 22.578125 -67.28125 L 23.46875 -69.203125 L 23.90625 -71.28125 L 24.65625 -72.328125 L 25.25 -73.21875 L 26.4375 -76.34375 L 27.171875 -78.265625 L 27.625 -79.15625 L 28.515625 -80.5 L 28.953125 -81.984375 L 29.40625 -83.015625 L 30.75 -85.6875 L 31.046875 -86.734375 L 31.484375 -87.625 L 31.78125 -88.515625 L 32.078125 -89.5625 L 32.96875 -91.1875 L 33.5625 -92.078125 L 33.859375 -92.828125 L 34.75 -95.5 L 35.796875 -97.421875 L 37.125 -100.09375 L 37.578125 -101.140625 L 38.015625 -102.03125 L 38.609375 -103.65625 L 39.65625 -103.8125 L 41.140625 -103.8125 L 43.953125 -103.65625 L 45.453125 -103.8125 L 47.828125 -103.8125 L 50.640625 -103.96875 L 51.984375 -103.96875 L 53.015625 -103.65625 L 54.359375 -103.8125 L 56.734375 -103.8125 L 57.46875 -103.515625 L 58.515625 -102.765625 L 58.953125 -96.390625 L 58.953125 -93.125 L 59.25 -92.234375 L 59.25 -89.5625 L 59.40625 -84.203125 L 59.40625 -82.125 L 59.5625 -80.203125 L 59.859375 -77.234375 L 59.859375 -75.15625 L 60 -72.921875 L 59.859375 -71.875 L 59.859375 -68.609375 L 60.15625 -66.53125 L 60.15625 -63.5625 L 60.296875 -61.484375 L 60.15625 -60.59375 L 60.296875 -58.65625 L 60.296875 -57.765625 L 60.453125 -55.390625 L 60.75 -53.765625 L 60.75 -47.96875 L 60.890625 -46.1875 L 61.046875 -45 L 61.046875 -40.546875 L 61.1875 -33.71875 L 61.1875 -32.671875 L 61.34375 -30.453125 L 61.1875 -28.21875 L 61.34375 -26.140625 L 61.1875 -25.09375 L 61.484375 -19.453125 L 61.484375 -18.5625 L 61.640625 -16.640625 L 61.78125 -15.59375 L 61.78125 -13.359375 L 61.640625 -11.28125 L 61.78125 -10.09375 L 61.78125 -8.765625 L 61.9375 -5.5 L 61.9375 -2.375 C 62.03125 -2.082031 62.078125 -1.660156 62.078125 -1.109375 C 62.078125 -0.566406 61.878906 -0.195312 61.484375 0 C 61.191406 0.101562 60.921875 0.128906 60.671875 0.078125 C 60.421875 0.0234375 60.148438 0 59.859375 0 L 58.8125 0.15625 L 57.625 0 L 55.546875 0 L 52.28125 0.15625 L 51.09375 0.15625 L 49.3125 0 L 48.265625 0.15625 L 46.78125 0.296875 L 44.859375 0.15625 L 42.625 0.15625 L 42.03125 -0.296875 L 41.734375 -1.78125 L 41.578125 -4.453125 L 41.4375 -5.9375 L 41.578125 -7.421875 L 41.578125 -14.40625 L 41.4375 -15.59375 L 38.171875 -15.75 L 35.796875 -16.046875 L 29.25 -16.1875 L 25.25 -16.1875 L 24.5 -14.546875 L 23.46875 -12.625 L 23.171875 -11.578125 L 22.71875 -10.546875 L 22.125 -8.765625 L 20.640625 -5.9375 L 19.75 -3.71875 L 19.3125 -2.078125 L 18.859375 -1.34375 L 18.265625 -0.296875 L 17.375 0.296875 L 13.21875 0.15625 Z M 36.53125 -35.5 L 40.984375 -35.5 L 41.875 -36.234375 L 42.03125 -38.3125 L 41.875 -39.5 L 42.03125 -40.6875 L 42.03125 -44.5625 L 42.171875 -45.59375 L 42.171875 -48.125 L 42.46875 -49.3125 L 42.328125 -52.875 L 42.46875 -58.515625 L 42.625 -63.859375 L 42.46875 -67.28125 L 41.28125 -66.828125 L 40.6875 -64.90625 L 39.953125 -62.53125 L 39.5 -61.046875 L 38.765625 -58.65625 L 38.171875 -57.46875 L 37.578125 -55.984375 L 37.421875 -54.953125 L 36.828125 -53.90625 L 36.390625 -52.578125 L 35.9375 -51.53125 L 35.5 -50.203125 L 34.609375 -46.9375 L 34.453125 -45.890625 L 33.71875 -43.65625 L 33.125 -42.625 L 32.375 -40.09375 L 32.078125 -39.0625 L 31.78125 -37.71875 L 31.34375 -36.6875 L 32.375 -35.796875 L 33.5625 -35.796875 L 35.203125 -35.640625 Z M 36.53125 -35.5 "/></g></g></g><g fill="#e4e2dd" fill-opacity="1"><g transform="translate(204.050538, 228.629707)"><g><path d="M 32.53125 1.78125 L 31.1875 1.640625 L 30.15625 1.640625 L 29.109375 1.484375 L 27.46875 1.34375 L 26.28125 1.1875 L 25.390625 1.046875 L 23.90625 0.890625 L 22.875 0.59375 L 21.984375 0.453125 L 20.046875 -0.296875 L 18.265625 -0.890625 L 17.375 -1.640625 L 15.890625 -2.53125 L 15.15625 -3.125 L 14.25 -3.71875 L 12.328125 -5.203125 L 11.734375 -5.9375 L 10.984375 -6.6875 L 9.953125 -8.765625 L 8.609375 -10.6875 L 8.171875 -12.625 L 7.875 -13.515625 L 7.578125 -15.453125 L 7.28125 -16.484375 L 7.28125 -19.3125 L 7.125 -20.5 L 7.125 -21.828125 L 7.28125 -22.875 L 7.28125 -26.734375 L 7.421875 -29.859375 L 7.578125 -31.046875 L 7.71875 -33.125 L 8.015625 -35.203125 L 8.015625 -36.234375 L 8.171875 -37.125 L 8.46875 -40.25 L 9.0625 -42.328125 L 8.90625 -43.65625 L 9.203125 -44.859375 L 9.65625 -46.484375 L 9.5 -47.234375 L 9.953125 -49.90625 L 10.546875 -50.796875 L 10.546875 -52.875 L 10.6875 -53.3125 L 10.6875 -53.90625 L 11.140625 -55.546875 L 11.4375 -57.171875 L 11.875 -58.65625 L 12.03125 -60.453125 L 12.03125 -61.34375 L 12.46875 -62.234375 L 12.46875 -64.3125 L 13.21875 -67.28125 L 13.515625 -68.3125 L 13.8125 -69.953125 L 13.953125 -71.4375 L 14.40625 -72.328125 L 14.546875 -73.359375 L 14.859375 -74.40625 L 15 -75.296875 L 15.15625 -76.34375 L 15.59375 -77.375 L 16.046875 -79.3125 L 17.078125 -82.28125 L 17.96875 -85.25 L 18.5625 -87.328125 L 19.453125 -89.859375 L 20.203125 -91.640625 L 21.09375 -93.71875 L 21.6875 -95.34375 L 22.71875 -96.234375 L 23.765625 -97.71875 L 24.953125 -99.203125 L 27.03125 -101.28125 L 27.921875 -102.03125 L 29.859375 -102.921875 L 30.75 -103.359375 L 33.859375 -104.703125 L 36.390625 -105.15625 L 38.3125 -105.59375 L 39.359375 -105.75 L 41.578125 -105.75 L 44.40625 -105.890625 L 46.78125 -105.890625 L 50.5 -105.453125 L 51.828125 -105 L 53.3125 -105 L 55.390625 -104.703125 L 56.28125 -104.5625 L 57.328125 -104.265625 L 58.359375 -104.109375 L 58.953125 -103.65625 L 60.59375 -103.359375 L 62.671875 -102.625 L 64.609375 -101.140625 L 66.234375 -99.65625 L 66.53125 -98.90625 L 67.28125 -97.578125 L 67.71875 -96.828125 L 68.015625 -95.796875 L 68.765625 -94.3125 L 69.0625 -92.671875 L 69.203125 -90.890625 L 69.359375 -88.953125 L 69.5 -87.625 L 69.65625 -85.390625 L 69.65625 -82.125 L 69.5 -80.640625 L 69.203125 -79.453125 L 68.90625 -77.234375 L 68.609375 -74.859375 L 67.71875 -69.0625 L 67.421875 -67.875 L 66.6875 -64.015625 L 66.09375 -63.421875 L 64.3125 -63.265625 L 62.234375 -63.125 L 52.875 -63.265625 L 48.5625 -63.859375 L 47.53125 -65.5 L 47.53125 -67.578125 L 47.828125 -68.609375 L 48.421875 -71.28125 L 48.71875 -73.359375 L 49.609375 -76.640625 L 49.75 -78.5625 L 50.046875 -80.640625 L 50.046875 -82.875 L 49.15625 -85.546875 L 47.53125 -86.4375 L 45.453125 -87.03125 L 43.8125 -87.03125 L 42.03125 -86.734375 L 40.390625 -86.140625 L 39.0625 -84.5 L 38.609375 -83.609375 L 38.171875 -82.578125 L 37.578125 -80.046875 L 36.828125 -78.125 L 35.9375 -75.59375 L 35.9375 -74.703125 L 35.34375 -72.921875 L 34.90625 -70.6875 L 34.453125 -68.90625 L 34.015625 -67.578125 L 33.859375 -66.53125 L 33.71875 -65.640625 L 33.421875 -64.609375 L 33.125 -62.53125 L 32.375 -60.296875 L 31.1875 -54.359375 L 31.046875 -53.171875 L 30.453125 -50.796875 L 30.296875 -49.75 L 30 -47.828125 L 29.703125 -46.640625 L 29.25 -44.40625 L 29.25 -41.28125 L 28.8125 -40.25 L 28.65625 -39.203125 L 28.65625 -38.015625 L 28.515625 -36.984375 L 28.21875 -35.9375 L 28.359375 -34.90625 L 27.921875 -31.78125 L 27.921875 -30.59375 L 27.46875 -28.515625 L 27.328125 -26.4375 L 27.328125 -24.953125 L 27.46875 -24.0625 L 27.46875 -23.015625 L 28.0625 -20.796875 L 29.25 -19.75 L 31.484375 -19.015625 L 33.859375 -19.3125 L 36.09375 -19.3125 L 38.171875 -20.640625 L 38.765625 -21.390625 L 39.953125 -24.0625 L 40.6875 -26.140625 L 41.28125 -28.0625 L 41.4375 -28.953125 L 41.578125 -29.703125 L 42.03125 -31.484375 L 42.46875 -33.71875 L 42.765625 -35.046875 L 42.921875 -36.09375 L 43.65625 -38.015625 L 43.953125 -39.5 L 45 -40.6875 L 46.1875 -40.84375 L 50.046875 -40.6875 L 53.171875 -40.6875 L 60.453125 -40.25 L 62.234375 -40.09375 L 63.265625 -39.0625 L 63.859375 -38.015625 L 63.859375 -36.390625 L 63.5625 -35.5 L 63.5625 -34.453125 L 63.265625 -32.53125 L 63.125 -30.890625 L 62.828125 -30.15625 L 62.671875 -29.109375 L 62.53125 -28.515625 L 62.078125 -25.390625 L 61.78125 -24.5 L 60.890625 -20.796875 L 60.453125 -19.015625 L 60.296875 -17.96875 L 60 -16.9375 L 59.5625 -16.046875 L 58.65625 -13.65625 L 57.921875 -11.875 L 57.46875 -10.84375 L 56.875 -9.953125 L 56.140625 -9.0625 L 55.6875 -8.171875 L 55.390625 -7.28125 L 53.171875 -4.609375 L 50.9375 -2.671875 L 48.5625 -1.1875 L 47.53125 -0.75 L 43.65625 0.15625 L 41.875 0.59375 L 40.09375 0.890625 L 38.171875 1.34375 L 35.9375 1.34375 L 34.015625 1.484375 Z M 32.53125 1.78125 "/></g></g></g><g fill="#e4e2dd" fill-opacity="1"><g transform="translate(259.442285, 228.629707)"><g><path d="M 6.53125 0 L 5.34375 -0.890625 L 5.5 -3.125 L 5.5 -4.15625 L 5.9375 -5.203125 L 5.796875 -6.234375 L 6.234375 -8.171875 L 6.390625 -9.0625 L 6.984375 -10.984375 L 6.984375 -12.03125 L 7.125 -13.21875 L 7.125 -14.25 L 7.578125 -16.1875 L 7.578125 -16.9375 L 7.875 -19.609375 L 8.3125 -20.640625 L 8.46875 -22.71875 L 8.765625 -23.609375 L 8.765625 -24.5 L 9.359375 -26.4375 L 9.359375 -27.46875 L 10.09375 -30.59375 L 10.546875 -32.671875 L 10.84375 -34.90625 L 11.4375 -39.0625 L 11.875 -41.140625 L 12.171875 -42.328125 L 12.625 -44.5625 L 13.21875 -46.78125 L 13.359375 -48.859375 L 13.515625 -49.90625 L 13.8125 -52.125 L 14.40625 -55.09375 L 14.859375 -57.171875 L 15 -58.359375 L 15.15625 -59.40625 L 15.59375 -61.78125 L 16.046875 -63.859375 L 16.1875 -65.5 L 16.34375 -67.578125 L 16.78125 -68.46875 L 16.78125 -69.359375 L 17.078125 -70.390625 L 17.234375 -72.328125 L 17.671875 -73.21875 L 17.96875 -75.296875 L 17.828125 -76.34375 L 18.265625 -78.125 L 18.5625 -79.15625 L 18.5625 -80.046875 L 18.859375 -81.09375 L 18.859375 -81.984375 L 19.015625 -84.0625 L 19.3125 -84.953125 L 19.453125 -86.140625 L 20.046875 -90 L 20.640625 -91.9375 L 20.640625 -93.859375 L 21.09375 -95.5 L 21.09375 -97.421875 L 21.390625 -99.203125 L 21.828125 -102.03125 L 22.28125 -103.359375 L 22.875 -103.8125 L 24.203125 -103.8125 L 25.25 -104.109375 L 27.328125 -103.96875 L 31.046875 -103.96875 L 33.125 -103.8125 L 35.9375 -103.96875 L 36.984375 -103.96875 L 39.203125 -103.8125 L 41.4375 -103.8125 L 42.625 -103.21875 L 43.0625 -102.171875 L 42.765625 -100.6875 L 42.46875 -98.171875 L 42.328125 -96.09375 L 41.875 -93.5625 L 41.4375 -91.34375 L 41.28125 -90.296875 L 40.984375 -87.328125 L 40.6875 -86.140625 L 40.390625 -84.796875 L 40.25 -83.3125 L 39.953125 -82.28125 L 39.953125 -81.234375 L 39.65625 -80.34375 L 38.90625 -76.34375 L 38.46875 -74.5625 L 38.015625 -71.875 L 38.3125 -70.84375 L 39.796875 -72.328125 L 40.6875 -74.109375 L 42.328125 -76.046875 L 43.21875 -77.375 L 44.109375 -78.5625 L 45.296875 -79.609375 L 46.046875 -81.09375 L 46.34375 -81.828125 L 47.53125 -83.3125 L 48.5625 -84.796875 L 49.75 -86.140625 L 50.5 -87.46875 L 51.984375 -89.703125 L 53.3125 -91.34375 L 53.609375 -92.375 L 54.5 -93.5625 L 56.140625 -95.796875 L 57.46875 -97.71875 L 59.109375 -99.953125 L 60 -100.84375 L 60.453125 -102.03125 L 61.640625 -103.65625 L 63.125 -104.109375 L 65.796875 -103.96875 L 70.390625 -103.96875 L 71.875 -103.8125 L 72.625 -103.96875 L 75.453125 -103.96875 L 77.53125 -104.265625 L 80.5 -103.96875 L 81.828125 -104.109375 L 83.609375 -103.65625 L 84.0625 -102.625 L 82.875 -100.84375 L 82.421875 -99.796875 L 81.234375 -98.3125 L 79.90625 -96.6875 L 79.15625 -95.640625 L 78.421875 -94.90625 L 78.265625 -94.015625 L 77.671875 -93.265625 L 76.640625 -91.78125 L 76.046875 -90.75 L 75.296875 -89.265625 L 74.109375 -87.921875 L 73.515625 -87.03125 L 72.625 -86.140625 L 72.03125 -84.953125 L 70.84375 -83.609375 L 70.25 -82.125 L 69.359375 -81.09375 L 68.609375 -80.046875 L 67.125 -78.265625 L 66.234375 -76.9375 L 65.34375 -75.75 L 63.125 -72.46875 L 62.078125 -70.984375 L 60.75 -69.203125 L 59.109375 -66.6875 L 58.0625 -65.34375 L 57.328125 -64.015625 L 56.28125 -62.375 L 53.609375 -58.8125 L 52.125 -55.84375 L 52.421875 -54.359375 L 53.171875 -51.984375 L 53.46875 -50.5 L 54.203125 -48.71875 L 54.65625 -46.9375 L 55.84375 -42.765625 L 56.140625 -41.578125 L 56.734375 -39.65625 L 57.46875 -38.015625 L 58.0625 -36.6875 L 58.21875 -35.5 L 58.65625 -34.3125 L 58.8125 -33.421875 L 59.40625 -32.078125 L 59.5625 -31.046875 L 60.296875 -29.40625 L 60.890625 -27.625 L 61.1875 -26.578125 L 62.375 -24.796875 L 62.53125 -23.765625 L 62.53125 -22.875 L 63.125 -21.828125 L 63.71875 -19.90625 L 63.71875 -19.015625 L 64.90625 -17.234375 L 65.046875 -15.890625 L 65.203125 -14.859375 L 65.640625 -13.953125 L 65.640625 -12.765625 L 66.09375 -11.734375 L 66.53125 -10.984375 L 66.6875 -9.796875 L 67.125 -8.171875 L 68.171875 -6.390625 L 68.765625 -4.75 L 69.65625 -2.234375 L 69.953125 -1.484375 L 69.796875 -0.15625 L 66.390625 0 L 62.671875 0 L 58.0625 -0.15625 L 56.734375 0 L 53.609375 0 L 52.578125 -0.15625 L 49.3125 0 L 47.53125 -0.296875 L 46.9375 -1.1875 L 46.484375 -3.125 L 45.15625 -6.6875 L 43.953125 -10.84375 L 43.359375 -12.625 L 42.765625 -13.8125 L 42.328125 -15.75 L 42.03125 -16.78125 L 41.734375 -17.671875 L 40.984375 -19.75 L 40.390625 -21.828125 L 39.796875 -23.609375 L 38.90625 -25.546875 L 38.609375 -27.46875 L 38.46875 -28.359375 L 38.015625 -29.40625 L 37.28125 -31.046875 L 37.28125 -32.078125 L 36.53125 -33.71875 L 36.390625 -34.90625 L 35.9375 -36.234375 L 35.5 -37.421875 L 34.15625 -41.28125 L 33.265625 -43.515625 L 32.828125 -43.515625 L 32.671875 -42.625 L 32.375 -41.4375 L 32.234375 -40.390625 L 31.9375 -39.5 L 31.640625 -36.390625 L 31.34375 -34.453125 L 31.046875 -32.671875 L 30.890625 -31.640625 L 30.890625 -30.75 L 30.453125 -28.65625 L 30.15625 -27.46875 L 30 -25.390625 L 29.859375 -24.203125 L 29.703125 -22.28125 L 29.25 -21.234375 L 28.953125 -20.34375 L 28.65625 -17.234375 L 28.21875 -14.859375 L 27.765625 -13.0625 L 27.46875 -12.171875 L 27.328125 -11.140625 L 27.171875 -9.203125 L 26.578125 -7.125 L 25.984375 -5.5 L 25.984375 -3.71875 L 25.25 -0.75 L 23.609375 -0.15625 L 19.75 -0.15625 L 18.421875 0 L 16.640625 -0.15625 L 14.546875 0 L 13.65625 0 L 13.21875 -0.15625 L 12.171875 0 L 9.359375 0 L 8.015625 -0.15625 Z M 6.53125 0 "/></g></g></g><g fill="#e4e2dd" fill-opacity="1"><g transform="translate(155.078066, 264.127726)"><g><path d="M 11.515625 -7.484375 L 14.59375 -7.484375 L 14.59375 -1.59375 C 13.800781 -1 12.882812 -0.539062 11.84375 -0.21875 C 10.8125 0.09375 9.769531 0.25 8.71875 0.25 C 7.21875 0.25 5.863281 -0.0664062 4.65625 -0.703125 C 3.457031 -1.347656 2.515625 -2.238281 1.828125 -3.375 C 1.148438 -4.519531 0.8125 -5.8125 0.8125 -7.25 C 0.8125 -8.6875 1.148438 -9.972656 1.828125 -11.109375 C 2.515625 -12.253906 3.460938 -13.144531 4.671875 -13.78125 C 5.890625 -14.425781 7.257812 -14.75 8.78125 -14.75 C 10.050781 -14.75 11.203125 -14.535156 12.234375 -14.109375 C 13.273438 -13.679688 14.148438 -13.0625 14.859375 -12.25 L 12.703125 -10.25 C 11.660156 -11.34375 10.410156 -11.890625 8.953125 -11.890625 C 8.023438 -11.890625 7.203125 -11.695312 6.484375 -11.3125 C 5.765625 -10.925781 5.203125 -10.378906 4.796875 -9.671875 C 4.398438 -8.972656 4.203125 -8.164062 4.203125 -7.25 C 4.203125 -6.351562 4.398438 -5.550781 4.796875 -4.84375 C 5.203125 -4.144531 5.757812 -3.597656 6.46875 -3.203125 C 7.1875 -2.804688 8 -2.609375 8.90625 -2.609375 C 9.875 -2.609375 10.742188 -2.816406 11.515625 -3.234375 Z M 11.515625 -7.484375 "/></g></g></g><g fill="#e4e2dd" fill-opacity="1"><g transform="translate(179.956834, 264.127726)"><g><path d="M 8.6875 -5.140625 L 8.6875 0 L 5.328125 0 L 5.328125 -5.1875 L -0.296875 -14.5 L 3.28125 -14.5 L 7.140625 -8.0625 L 11.015625 -14.5 L 14.3125 -14.5 Z M 8.6875 -5.140625 "/></g></g></g><g fill="#e4e2dd" fill-opacity="1"><g transform="translate(202.867894, 264.127726)"><g><path d="M 14.921875 0 L 14.890625 -8.703125 L 10.625 -1.53125 L 9.109375 -1.53125 L 4.875 -8.515625 L 4.875 0 L 1.71875 0 L 1.71875 -14.5 L 4.5 -14.5 L 9.921875 -5.484375 L 15.265625 -14.5 L 18.03125 -14.5 L 18.0625 0 Z M 14.921875 0 "/></g></g></g></svg>